<svg display="none" xmlns="http://www.w3.org/2000/svg">
    <symbol id="facebook" viewBox="0 0 550 550">
        <g><circle cx="275" cy="275" r="256"/><path d="M236.1,190.8c0,7.4,0,40.4,0,40.4h-29.6v49.4h29.6V416h60.8V280.5h40.8     c0,0,3.8-23.7,5.7-49.6c-5.3,0-46.2,0-46.2,0s0-28.7,0-33.8c0-5,6.6-11.8,13.2-11.8c6.5,0,20.3,0,33.1,0c0-6.7,0-30,0-51.4     c-17.1,0-36.5,0-45,0C234.6,134,236.1,183.4,236.1,190.8z" fill="#FFFFFF" id="Facebook_4_"/></g>
    </symbol>
    
    <symbol id="instagram" viewBox="0 0 48 48">
        <path fill-rule="evenodd" clip-rule="evenodd" d="M0 24C0 10.7452 10.7452 0 24 0C37.2548 0 48 10.7452 48 24C48 37.2548 37.2548 48 24 48C10.7452 48 0 37.2548 0 24ZM24.0012 11.2C20.5249 11.2 20.0886 11.2152 18.7233 11.2773C17.3606 11.3397 16.4305 11.5555 15.6166 11.872C14.7747 12.1989 14.0606 12.6363 13.3491 13.348C12.6371 14.0595 12.1997 14.7736 11.8717 15.6152C11.5544 16.4294 11.3384 17.3598 11.2771 18.7219C11.216 20.0873 11.2 20.5238 11.2 24.0001C11.2 27.4764 11.2155 27.9114 11.2773 29.2767C11.34 30.6394 11.5557 31.5695 11.872 32.3834C12.1992 33.2253 12.6365 33.9394 13.3483 34.6509C14.0595 35.3629 14.7736 35.8013 15.615 36.1283C16.4294 36.4448 17.3598 36.6605 18.7222 36.7229C20.0876 36.7851 20.5236 36.8003 23.9996 36.8003C27.4762 36.8003 27.9111 36.7851 29.2765 36.7229C30.6391 36.6605 31.5703 36.4448 32.3848 36.1283C33.2264 35.8013 33.9394 35.3629 34.6506 34.6509C35.3626 33.9394 35.8 33.2253 36.128 32.3837C36.4427 31.5695 36.6587 30.6391 36.7227 29.277C36.784 27.9116 36.8 27.4764 36.8 24.0001C36.8 20.5238 36.784 20.0876 36.7227 18.7222C36.6587 17.3595 36.4427 16.4294 36.128 15.6155C35.8 14.7736 35.3626 14.0595 34.6506 13.348C33.9386 12.636 33.2266 12.1987 32.384 11.872C31.5679 11.5555 30.6373 11.3397 29.2746 11.2773C27.9092 11.2152 27.4746 11.2 23.9972 11.2H24.0012Z"/>
        <path fill-rule="evenodd" clip-rule="evenodd" d="M22.8529 13.5067C23.1937 13.5062 23.574 13.5067 24.0012 13.5067C27.4188 13.5067 27.8239 13.519 29.1735 13.5803C30.4215 13.6374 31.0989 13.8459 31.5501 14.0211C32.1474 14.2531 32.5733 14.5304 33.021 14.9784C33.469 15.4264 33.7464 15.8531 33.9789 16.4505C34.1541 16.9011 34.3629 17.5785 34.4197 18.8265C34.481 20.1758 34.4944 20.5812 34.4944 23.9972C34.4944 27.4132 34.481 27.8186 34.4197 29.1679C34.3626 30.4159 34.1541 31.0933 33.9789 31.5439C33.7469 32.1413 33.469 32.5666 33.021 33.0144C32.573 33.4624 32.1477 33.7397 31.5501 33.9717C31.0994 34.1477 30.4215 34.3557 29.1735 34.4128C27.8242 34.4741 27.4188 34.4874 24.0012 34.4874C20.5833 34.4874 20.1782 34.4741 18.8289 34.4128C17.5809 34.3552 16.9035 34.1466 16.4521 33.9714C15.8547 33.7394 15.428 33.4621 14.98 33.0141C14.532 32.5661 14.2547 32.1405 14.0222 31.5429C13.847 31.0922 13.6382 30.4149 13.5814 29.1669C13.52 27.8175 13.5078 27.4122 13.5078 23.994C13.5078 20.5758 13.52 20.1726 13.5814 18.8233C13.6384 17.5753 13.847 16.8979 14.0222 16.4467C14.2542 15.8494 14.532 15.4227 14.98 14.9747C15.428 14.5267 15.8547 14.2494 16.4521 14.0168C16.9033 13.8408 17.5809 13.6328 18.8289 13.5755C20.0097 13.5222 20.4673 13.5062 22.8529 13.5035V13.5067ZM30.8338 15.632C29.9858 15.632 29.2978 16.3193 29.2978 17.1675C29.2978 18.0155 29.9858 18.7035 30.8338 18.7035C31.6818 18.7035 32.3698 18.0155 32.3698 17.1675C32.3698 16.3195 31.6818 15.632 30.8338 15.632ZM24.0012 17.4267C20.371 17.4267 17.4278 20.37 17.4278 24.0001C17.4278 27.6303 20.371 30.5722 24.0012 30.5722C27.6314 30.5722 30.5735 27.6303 30.5735 24.0001C30.5735 20.37 27.6314 17.4267 24.0012 17.4267Z"/>
        <path fill-rule="evenodd" clip-rule="evenodd" d="M24.0012 19.7334C26.3575 19.7334 28.2679 21.6436 28.2679 24.0001C28.2679 26.3564 26.3575 28.2668 24.0012 28.2668C21.6446 28.2668 19.7345 26.3564 19.7345 24.0001C19.7345 21.6436 21.6446 19.7334 24.0012 19.7334Z"/>
    </symbol>
    
    <symbol id="telegram" viewBox="0 0 32 32">
        <path d="M16 0.5c-8.563 0-15.5 6.938-15.5 15.5s6.938 15.5 15.5 15.5c8.563 0 15.5-6.938 15.5-15.5s-6.938-15.5-15.5-15.5zM23.613 11.119l-2.544 11.988c-0.188 0.85-0.694 1.056-1.4 0.656l-3.875-2.856-1.869 1.8c-0.206 0.206-0.381 0.381-0.781 0.381l0.275-3.944 7.181-6.488c0.313-0.275-0.069-0.431-0.482-0.156l-8.875 5.587-3.825-1.194c-0.831-0.262-0.85-0.831 0.175-1.231l14.944-5.763c0.694-0.25 1.3 0.169 1.075 1.219z"/>
    </symbol>

    <symbol id="viber" viewBox="0 0 52 52">
        <g id="Icons" stroke="none" stroke-width="1" fill-rule="evenodd">
            <g id="Black" transform="translate(-598.000000, -758.000000)">
                <path d="M624,810 C638.359403,810 650,798.359403 650,784 C650,769.640597 638.359403,758 624,758 C609.640597,758 598,769.640597 598,784 C598,798.359403 609.640597,810 624,810 Z M625.557163,799.409207 C627.325063,799.188564 628.753733,798.762672 630.321233,797.998094 C631.862939,797.243741 632.849644,796.530492 634.155019,795.232271 C635.37816,794.005859 636.056551,793.077041 636.776002,791.635145 C637.778174,789.623608 638.348632,787.232396 638.446219,784.599993 C638.482254,783.702032 638.456556,783.50185 638.25094,783.245321 C637.86039,782.747507 637.002091,782.829703 636.709224,783.388976 C636.616662,783.573725 636.590964,783.732729 636.560135,784.451177 C636.508729,785.554433 636.431719,786.267682 636.27751,787.119522 C635.671103,790.460024 634.067654,793.128369 631.508319,795.042409 C629.375578,796.643375 627.170843,797.423387 624.282692,797.592702 C623.306228,797.649143 623.136647,797.685029 622.915679,797.854391 C622.504456,798.177682 622.483974,798.9371 622.879644,799.291164 C623.121199,799.511855 623.290771,799.542627 624.128492,799.516968 C624.565327,799.501582 625.207683,799.450263 625.557163,799.409207 L625.557163,799.409207 Z M613.809012,798.854999 C613.98892,798.793445 614.266425,798.649789 614.425756,798.547142 C615.402134,797.900559 618.120799,794.426647 619.009917,792.692195 C619.518641,791.70186 619.688213,790.968064 619.528978,790.424129 C619.364432,789.839149 619.092143,789.531244 617.874123,788.551135 C617.385891,788.156063 616.928478,787.750671 616.856589,787.642901 C616.67156,787.376051 616.522471,786.852663 616.522471,786.483204 C616.527687,785.626251 617.082688,784.071435 617.812475,782.875805 C618.377717,781.947024 619.39013,780.756602 620.392302,779.84316 C621.569167,778.765517 622.607278,778.031815 623.779022,777.4519 C625.284788,776.702756 626.204735,776.512894 626.877996,776.825864 C627.047567,776.902853 627.227389,777.0055 627.284002,777.051621 C627.335313,777.097836 627.731079,777.580217 628.162784,778.113821 C628.995289,779.160683 629.185438,779.329998 629.755896,779.524982 C630.480563,779.771285 631.220592,779.704618 631.965742,779.324885 C632.531079,779.032366 633.76447,778.267798 634.561026,777.713628 C635.609379,776.979831 637.850063,775.153043 638.153362,774.788658 C638.687784,774.13185 638.780346,773.290379 638.42053,772.361503 C638.040222,771.381489 636.560154,769.54439 635.527163,768.759265 C634.591855,768.051128 633.92893,767.779251 633.05526,767.738158 C632.335809,767.702263 632.037726,767.763817 631.117779,768.14355 C623.902394,771.11464 618.141368,775.548114 613.567447,781.639157 C611.177779,784.820617 609.358473,788.120102 608.114745,791.542752 C607.390173,793.538846 607.354224,794.406072 607.950294,795.427217 C608.207307,795.858231 609.301946,796.925592 610.098502,797.520807 C611.424455,798.506067 612.035983,798.870414 612.524215,798.973014 C612.858247,799.04487 613.438945,798.988429 613.809012,798.854999 L613.809012,798.854999 Z M625.911773,795.688935 C629.031324,795.232271 631.446691,793.785177 633.029562,791.43501 C633.91868,790.111111 634.47368,788.556295 634.663839,786.888605 C634.730607,786.277956 634.730607,785.164427 634.658718,784.979678 C634.591855,784.80525 634.376007,784.569173 634.190969,784.471724 C633.990569,784.369076 633.564079,784.379302 633.327644,784.502496 C632.931879,784.702593 632.813714,785.020771 632.813714,785.882837 C632.813714,787.211849 632.469355,788.612736 631.873285,789.700606 C631.194894,790.942404 630.208198,791.968672 629.005635,792.681969 C627.972644,793.297732 626.4463,793.754405 625.053579,793.867278 C624.549889,793.908372 624.272384,794.010981 624.082235,794.231625 C623.789368,794.56519 623.758454,795.01675 624.00513,795.391313 C624.272375,795.806969 624.683502,795.873684 625.911773,795.688935 L625.911773,795.688935 Z M627.006411,791.814743 C628.018825,791.599213 628.794898,791.214367 629.457823,790.593454 C630.310906,789.787877 630.778646,788.812881 630.984157,787.411993 C631.122909,786.498599 631.066382,786.139423 630.742601,785.841791 C630.439407,785.564706 629.879286,785.554433 629.540048,785.816132 C629.293372,786.00088 629.216267,786.195864 629.15974,786.724365 C629.092972,787.427389 628.969591,787.919995 628.758949,788.376716 C628.306657,789.346542 627.510101,789.849431 626.163665,790.013633 C625.531464,790.090622 625.341315,790.162449 625.135794,790.403592 C624.760607,790.850039 624.90448,791.573563 625.423541,791.840412 C625.618906,791.9379 625.701131,791.948173 626.132751,791.922513 C626.400005,791.907118 626.79577,791.860949 627.006411,791.814743 L627.006411,791.814743 Z" id="Viber" transform="translate(624.000000, 784.000000) scale(1, -1) translate(-624.000000, -784.000000) "></path>
            </g>
        </g>
    </symbol>

    <symbol id="vk" viewBox="0 0 512 512">
        <g><path d="M511.992,256.001c0,141.387-114.607,255.98-255.996,255.98c-141.381,0-255.988-114.594-255.988-255.98    C0.008,114.62,114.615,0.019,255.996,0.019C397.385,0.019,511.992,114.62,511.992,256.001z"/><path d="M504.844,316.007L396.268,207.415l-74.765,47.875l-50.71-50.711l-52.554,52.545l39.187,39.188    l-7.875,5.047l-94.271-94.287l-32.109,32.102l87.241,87.24L179.6,346.14l153.88,153.881    C418.275,473.122,483.883,403.271,504.844,316.007z" opacity="0.15"/></g><path d="M261.199,368.546c7.695,0,10.852-5.117,10.742-11.531   c-0.391-24.203,9.039-37.234,26.039-20.266c18.813,18.797,22.702,31.797,45.554,31.797c8.671,0,32.015,0,40.444,0   c31.82,0,3.469-31.891-18.945-52.672c-21.312-19.75-22.319-20.227-3.969-44c22.789-29.514,52.578-67.553,26.219-67.553   c-5.156,0-1.477,0-50.319,0c-9.773,0-10.484,5.695-13.945,13.891c-12.569,29.602-36.483,67.99-45.554,62.123   c-9.516-6.133-5.164-26.92-4.438-62.951c0.195-9.516,0.141-16.063-14.414-19.43c-39.78-9.227-74.24,8.906-60.163,11.516   c19.844,3.703,17.945,43.156,13.328,61.693c-8.063,32.258-38.39-25.537-51.015-54.334c-3.055-6.922-3.984-12.508-14.867-12.508   c-5.969,0-32.301,0-41.152,0c-7.926,0-11.815,3.625-9.034,10.992c2.757,7.352,34.608,78.475,72.257,119.053   C202.794,371.921,237.238,368.546,261.199,368.546z" fill="#F4F6F9" id="V_kontakte_1_"/>
    </symbol>

    <symbol id="whatsapp" viewBox="0 0 48 48">
        <path fill-rule="evenodd" clip-rule="evenodd" d="M24 48C10.7452 48 0 37.2548 0 24C0 10.7452 10.7452 0 24 0C37.2548 0 48 10.7452 48 24C48 37.2548 37.2548 48 24 48ZM24.7911 37.3525C32.6595 37.3493 39.059 30.9483 39.0621 23.0815C39.0637 19.2683 37.5806 15.6828 34.8862 12.9854C32.1918 10.2879 28.6086 8.80165 24.7909 8.8C16.9248 8.8 10.5228 15.2017 10.5196 23.0702C10.5186 25.5855 11.1757 28.0405 12.4246 30.2048L10.4 37.6L17.9653 35.6155C20.0498 36.7524 22.3967 37.3517 24.7852 37.3525H24.7911Z"/>
        <path fill-rule="evenodd" clip-rule="evenodd" d="M18.3159 33.0319L13.8265 34.2096L15.0248 29.8324L14.7428 29.3836C13.5554 27.4951 12.9283 25.3124 12.9292 23.0711C12.9318 16.5311 18.2529 11.2104 24.7958 11.2104C27.964 11.2115 30.9422 12.4469 33.1817 14.689C35.4212 16.9311 36.6538 19.9112 36.6526 23.0807C36.6499 29.6212 31.3289 34.9424 24.7911 34.9424H24.7863C22.6578 34.9415 20.5702 34.3697 18.749 33.289L18.3159 33.0319ZM31.9808 26.4751C31.8917 26.3264 31.654 26.2372 31.2974 26.0586C30.9408 25.8801 29.1877 25.0176 28.8608 24.8985C28.534 24.7795 28.2961 24.7201 28.0585 25.0769C27.8208 25.4339 27.1374 26.2372 26.9294 26.4751C26.7214 26.7131 26.5133 26.7429 26.1569 26.5644C25.8003 26.3859 24.6513 26.0094 23.2893 24.7945C22.2292 23.8489 21.5135 22.6813 21.3055 22.3243C21.0975 21.9673 21.2834 21.7743 21.4619 21.5965C21.6223 21.4367 21.8185 21.1799 21.9968 20.9718C22.1751 20.7636 22.2345 20.6148 22.3533 20.377C22.4722 20.1389 22.4128 19.9307 22.3236 19.7522C22.2345 19.5737 21.5213 17.8185 21.2242 17.1045C20.9347 16.4092 20.6408 16.5034 20.4219 16.4924C20.2141 16.482 19.9762 16.4798 19.7385 16.4798C19.5008 16.4798 19.1144 16.569 18.7876 16.926C18.4607 17.283 17.5395 18.1457 17.5395 19.9008C17.5395 21.656 18.8173 23.3516 18.9956 23.5896C19.1739 23.8276 21.51 27.4293 25.0871 28.9739C25.9379 29.3413 26.602 29.5607 27.12 29.725C27.9742 29.9965 28.7516 29.9582 29.3659 29.8663C30.0511 29.764 31.4756 29.0038 31.7729 28.1709C32.0699 27.3378 32.0699 26.6238 31.9808 26.4751Z"/>
    </symbol>
</svg>