<?xml version="1.0" standalone="no"?>
<!DOCTYPE svg PUBLIC "-//W3C//DTD SVG 20010904//EN"
 "http://www.w3.org/TR/2001/REC-SVG-20010904/DTD/svg10.dtd">
<svg version="1.0" xmlns="http://www.w3.org/2000/svg"
 width="459.000000pt" height="459.000000pt" viewBox="0 0 459.000000 459.000000"
 preserveAspectRatio="xMidYMid meet">
<metadata>
Created by potrace 1.14, written by Peter Selinger 2001-2017
</metadata>
<g transform="translate(0.000000,459.000000) scale(0.100000,-0.100000)"
fill="#000000" stroke="none">
<path d="M2795 3551 c-107 -29 -178 -67 -243 -130 -102 -101 -143 -210 -138
-365 2 -50 7 -107 11 -126 9 -46 60 -154 81 -171 13 -11 65 -14 230 -14 118 0
214 0 214 1 0 1 -19 14 -42 30 -24 16 -45 31 -48 35 -3 3 -16 13 -30 22 -50
34 -138 129 -158 170 -104 215 4 449 229 497 204 43 382 -38 487 -223 26 -45
70 -172 77 -224 3 -21 7 -49 10 -63 2 -14 4 -29 4 -33 1 -5 16 -7 33 -5 l33 3
2 145 c1 80 4 212 7 294 4 101 2 152 -5 156 -18 12 -59 -1 -60 -19 -1 -28 -7
-48 -21 -77 -21 -44 -66 -38 -168 23 -123 74 -164 85 -310 89 -98 3 -140 -1
-195 -15z"/>
<path d="M1367 3552 c-17 -3 -25 -51 -9 -53 24 -3 63 -8 101 -13 54 -7 85 -27
108 -69 16 -28 19 -71 23 -352 l5 -320 125 -1 c69 0 130 1 135 3 7 2 11 94 10
276 -1 439 6 456 215 471 27 2 39 31 21 49 -9 9 -688 18 -734 9z"/>
<path d="M570 2443 c0 -104 -3 -130 -17 -145 -13 -14 -13 -18 -2 -18 8 0 22 7
32 14 16 12 18 31 19 134 0 66 -2 125 -6 131 -19 31 -26 1 -26 -116z"/>
<path d="M725 2488 c1 -46 5 -90 9 -99 8 -19 48 -39 77 -39 22 0 79 27 80 38
0 4 2 16 5 27 6 28 6 146 0 152 -14 15 -24 -14 -25 -71 0 -94 -8 -114 -45
-125 -46 -13 -75 24 -74 93 1 90 -1 106 -16 106 -11 0 -13 -17 -11 -82z"/>
<path d="M1025 2558 c-3 -7 -4 -56 -2 -108 l2 -95 73 -3 c44 -2 71 1 68 6 -3
6 -28 9 -56 8 -27 -1 -51 1 -52 4 -1 3 -2 46 -4 95 -1 50 -3 93 -3 98 -2 12
-21 8 -26 -5z"/>
<path d="M1278 2558 c-3 -11 -3 -174 1 -200 1 -5 7 -8 15 -8 17 0 17 211 0
217 -6 2 -13 -2 -16 -9z"/>
<path d="M1491 2548 c-5 -13 -17 -43 -26 -68 -9 -25 -23 -59 -31 -77 -17 -37
-18 -53 -3 -53 5 0 15 14 20 30 11 29 16 32 59 32 40 0 45 -3 62 -32 9 -17 24
-30 33 -30 14 0 14 2 -1 24 -8 14 -17 31 -18 38 -1 7 -8 23 -14 36 -7 12 -10
22 -7 22 3 0 -4 18 -15 40 -11 22 -17 40 -13 40 10 0 -19 20 -30 20 -4 0 -11
-10 -16 -22z m32 -48 c3 -11 5 -21 4 -23 0 -1 5 -12 12 -24 11 -22 10 -23 -23
-23 -43 0 -49 9 -31 43 8 15 12 27 9 27 -3 0 -2 5 1 10 10 16 22 12 28 -10z"/>
<path d="M1887 2556 c-21 -16 -29 -47 -17 -67 5 -7 31 -25 57 -39 50 -26 59
-44 36 -71 -16 -19 -62 -14 -70 7 -3 8 -12 14 -20 14 -10 0 -13 -6 -9 -16 3
-9 6 -17 6 -19 0 -2 16 -7 35 -11 67 -12 119 31 94 77 -5 10 -32 28 -60 40
-40 17 -49 26 -47 43 2 12 14 25 31 31 24 8 31 6 42 -9 8 -10 19 -15 25 -11
19 12 -16 41 -52 43 -18 1 -41 -5 -51 -12z"/>
<path d="M2100 2559 c0 -6 12 -10 28 -9 15 1 32 2 37 1 6 -1 10 -41 9 -101 0
-72 3 -100 12 -100 17 0 20 16 19 108 -1 46 2 85 8 89 5 3 23 6 39 5 15 0 26
4 23 9 -9 13 -175 12 -175 -2z"/>
<path d="M2385 2558 c-5 -18 -1 -195 5 -201 10 -11 134 -10 137 0 2 6 -14 10
-39 11 -76 0 -75 0 -76 37 -2 41 19 54 76 48 21 -2 31 0 27 7 -3 5 -28 10 -55
10 l-48 0 1 42 2 41 53 0 c29 -1 55 3 58 8 3 5 -27 9 -66 9 -48 0 -72 -4 -75
-12z"/>
<path d="M2648 2563 c-3 -7 -2 -141 1 -196 2 -36 26 -10 26 29 0 31 4 39 20
42 70 10 95 28 95 67 0 35 -44 65 -96 65 -23 0 -44 -3 -46 -7z m104 -37 c13
-31 5 -54 -24 -65 -41 -15 -55 -4 -53 42 2 23 3 43 4 45 1 1 15 2 31 2 23 0
33 -6 42 -24z"/>
<path d="M2897 2562 c-2 -6 -1 -148 2 -195 1 -10 6 -17 13 -15 8 3 12 29 11
82 l-1 77 33 -37 c18 -20 39 -49 47 -63 18 -35 40 -61 53 -61 11 0 14 205 2
216 -15 15 -21 -9 -19 -76 2 -67 -10 -92 -23 -50 -3 11 -11 20 -16 20 -5 0 -9
4 -9 9 0 6 -11 22 -25 37 -14 15 -25 32 -25 39 0 13 -38 28 -43 17z"/>
<path d="M3233 2554 c-61 -30 -74 -133 -22 -180 11 -10 39 -19 63 -20 37 -2
48 2 72 27 48 50 35 152 -23 178 -32 15 -52 14 -90 -5z m87 -22 c25 -20 34
-87 16 -123 -16 -33 -53 -50 -81 -37 -47 21 -60 106 -24 152 24 30 57 34 89 8z"/>
<path d="M3475 2560 c-6 -9 -3 -15 29 -77 9 -18 17 -36 18 -40 0 -5 4 -18 9
-31 5 -13 9 -27 9 -31 0 -5 7 -14 15 -21 17 -14 34 -5 39 21 2 8 8 25 13 39
52 122 60 150 44 150 -4 0 -23 -38 -41 -85 -18 -47 -36 -85 -40 -85 -7 0 -30
45 -30 60 0 17 -43 110 -51 110 -4 0 -10 -4 -14 -10z"/>
<path d="M3809 2565 c-1 -3 -3 -9 -4 -15 -1 -5 -4 -12 -5 -15 -1 -3 -3 -8 -5
-12 -1 -5 -6 -19 -12 -33 -36 -85 -53 -133 -48 -139 8 -7 35 28 35 45 0 14 32
21 74 15 21 -3 32 -12 40 -32 6 -17 18 -29 28 -29 14 0 16 4 9 18 -11 21 -22
49 -53 127 -12 33 -27 63 -33 67 -12 9 -24 10 -26 3z m48 -132 c-3 -2 -20 -3
-39 -1 l-34 3 19 45 20 45 19 -43 c11 -24 17 -46 15 -49z"/>
<path d="M1607 2162 c-15 -3 -17 -28 -17 -270 0 -455 -15 -608 -71 -727 -57
-121 -198 -204 -339 -200 -121 4 -216 41 -147 59 12 3 36 19 52 36 25 26 29
39 31 94 2 53 -1 71 -19 97 -72 108 -243 91 -284 -27 -15 -42 -10 -113 11
-152 54 -104 211 -171 391 -166 290 8 520 187 595 464 26 94 35 162 44 302 2
42 6 80 8 85 2 4 3 98 3 208 l0 199 -121 1 c-66 0 -128 -1 -137 -3z"/>
<path d="M3290 2158 c0 -4 6 -13 13 -20 25 -24 65 -103 80 -153 18 -64 14
-186 -8 -250 -51 -146 -175 -230 -352 -240 -104 -6 -264 46 -333 108 -102 91
-193 307 -205 486 -5 63 -12 74 -50 69 l-28 -3 -3 -270 c-1 -148 -4 -301 -6
-340 -4 -77 3 -95 38 -95 23 0 27 6 39 69 16 79 49 80 190 8 126 -65 212 -88
340 -91 91 -2 217 13 268 33 15 6 27 8 27 6 0 -16 167 86 210 129 52 52 120
154 120 182 0 9 4 23 9 33 19 35 29 173 17 246 -12 76 -18 95 -29 96 -62 5
-337 2 -337 -3z"/>
</g>
</svg>
